<?xml version="1.0" encoding="UTF-8" standalone="no"?>
<!-- Created with Inkscape (http://www.inkscape.org/) -->

<svg
   xmlns:dc="http://purl.org/dc/elements/1.1/"
   xmlns:cc="http://creativecommons.org/ns#"
   xmlns:rdf="http://www.w3.org/1999/02/22-rdf-syntax-ns#"
   xmlns:svg="http://www.w3.org/2000/svg"
   xmlns="http://www.w3.org/2000/svg"
   xmlns:sodipodi="http://sodipodi.sourceforge.net/DTD/sodipodi-0.dtd"
   xmlns:inkscape="http://www.inkscape.org/namespaces/inkscape"
   id="svg4303"
   sodipodi:docname="1416154658.svg"
   viewBox="0 0 800 800"
   version="1.1"
   inkscape:version="0.91 r13725"
   width="225.77777mm"
   height="225.77777mm"
   inkscape:export-filename="/tmp/dolomon.png"
   inkscape:export-xdpi="43"
   inkscape:export-ydpi="43">
  <defs
     id="defs22" />
  <sodipodi:namedview
     id="base"
     bordercolor="#666666"
     inkscape:pageshadow="2"
     inkscape:window-y="30"
     pagecolor="#ffffff"
     inkscape:window-height="1020"
     inkscape:window-maximized="0"
     inkscape:zoom="0.84852814"
     inkscape:window-x="0"
     showgrid="false"
     borderopacity="1.0"
     inkscape:current-layer="layer1"
     inkscape:cx="419.6087"
     inkscape:cy="313.83324"
     inkscape:window-width="1680"
     inkscape:pageopacity="0.0"
     inkscape:document-units="px"
     units="mm" />
  <g
     id="layer1"
     inkscape:label="Layer 1"
     inkscape:groupmode="layer"
     transform="translate(0,200)">
    <path
       id="path5023"
       style="fill:#800000;fill-rule:evenodd"
       d="m 356.44,-24.93 c 19.258,-11.085 41.172,-20.239 67.75,-26 -3.2654,4.0564 -7.0105,7.982 -6.75,13 19.058,-6.9094 39.784,-11.914 63.5,-13.5 -4.1255,3.258 -8.5914,6.3118 -9.5,11.5 24.341,-7.5079 40.687,-7.02 59.5,-9 -13.401,8.0826 -23.256,15.375 -25.5,23.75 z"
       inkscape:export-ydpi="43.349998"
       sodipodi:nodetypes="cccccccc"
       inkscape:export-filename="C:\Users\Rene\Dropbox\osoverm.png"
       inkscape:connector-curvature="0"
       inkscape:export-xdpi="43.349998" />
    <path
       id="path5096"
       style="fill:#ff2a2a"
       d="m 136.68,350.32 c 0,0 -73.807,-7.0156 -88.241,-30.248 -10.773,-17.34 12.214,-44.137 5.75,-63.5 -7.5766,-22.695 -44.471,-23.299 -47.75,-47 -2.323,-16.792 24.449,-32.331 25.5,-49.25 1.1107,-17.889 -21,-44.25 -21,-44.25 0,0 38.194,22.598 41.5,42 2.8799,16.904 -23.14,31.55 -19.25,48.25 4.9251,21.142 39.147,18.731 47.543,38.75 6.7416,16.073 -11.606,37.428 -2.0429,52 9.7656,14.881 58.13,12.978 58.13,12.978 z"
       inkscape:export-ydpi="43.349998"
       sodipodi:nodetypes="csssscsssscc"
       inkscape:export-filename="C:\Users\Rene\Dropbox\osoverm.png"
       inkscape:connector-curvature="0"
       inkscape:export-xdpi="43.349998" />
    <path
       id="path5100"
       style="fill:#ff2a2a;fill-rule:evenodd"
       d="m 180.23,29.37 c 32.72,-32.72 66.596,-26.44 89.262,-3.8134 -21.813,21.813 -67.969,73.334 -89.783,95.147 -22.626,-22.666 -32.199,-58.614 0.521,-91.334 z"
       inkscape:export-ydpi="43.349998"
       sodipodi:nodetypes="sccs"
       inkscape:export-filename="C:\Users\Rene\Dropbox\osoverm.png"
       inkscape:connector-curvature="0"
       inkscape:export-xdpi="43.349998" />
    <path
       id="path5106"
       style="fill:#ff2a2a;fill-rule:evenodd"
       d="M 698.66,29.37 C 665.94,-3.35 632.064,2.93 609.398,25.5566 c 21.813,21.813 67.969,73.334 89.783,95.147 22.626,-22.666 32.199,-58.614 -0.521,-91.334 z"
       inkscape:export-ydpi="43.349998"
       sodipodi:nodetypes="sccs"
       inkscape:export-filename="C:\Users\Rene\Dropbox\osoverm.png"
       inkscape:connector-curvature="0"
       inkscape:export-xdpi="43.349998" />
    <path
       id="path5108"
       style="fill:#000000;fill-opacity:0.47089999"
       d="m 10.943,116.07 c 0,0 22.111,26.361 21,44.25 -1.0505,16.919 -27.823,32.458 -25.5,49.25 3.2787,23.701 40.173,24.305 47.75,47 6.4643,19.363 -16.523,46.16 -5.75,63.5 14.434,23.233 88.25,30.25 88.25,30.25 l 0,-0.4375 c -15.391,-1.8229 -68.452,-9.7914 -80.891,-29.812 -10.773,-17.34 11.154,-46.081 4.6893,-65.445 -7.5766,-22.695 -45.355,-21.355 -48.634,-45.055 -2.323,-16.792 23.919,-32.331 24.97,-49.25 0.8086,-13.024 -11.538,-30.499 -17.853,-39.062 -4.7033,-3.2188 -8.0312,-5.1875 -8.0312,-5.1875 z m 125.88,193.97 c 0,0 -0.7522,0.0396 -2.0938,0.0625 0.7776,0.002 1.4539,0.005 2.0938,0 z"
       inkscape:export-ydpi="43.349998"
       sodipodi:nodetypes="cssssccsssscccccc"
       inkscape:export-filename="C:\Users\Rene\Dropbox\osoverm.png"
       inkscape:connector-curvature="0"
       inkscape:export-xdpi="43.349998" />
    <path
       id="path5025"
       style="fill:#ff2a2a;fill-rule:evenodd"
       d="m 439.7,-32.710015 c -312.97,0 -312.77,284.240635 -312.96,634.927135 l 625.92,0 C 752.4709,251.53062 752.67,-32.710015 439.7,-32.710015 Z"
       inkscape:export-ydpi="43.349998"
       sodipodi:nodetypes="sccs"
       inkscape:export-filename="C:\Users\Rene\Dropbox\osoverm.png"
       inkscape:connector-curvature="0"
       inkscape:export-xdpi="43.349998" />
    <ellipse
       id="ellipse5037"
       style="fill:#ffffff;fill-opacity:0.73015998;fill-rule:evenodd"
       inkscape:export-ydpi="43.349998"
       rx="149.3576"
       inkscape:export-xdpi="43.349998"
       ry="151.82164"
       cy="168.58606"
       cx="438.29346"
       inkscape:export-filename="C:\Users\Rene\Dropbox\osoverm.png" />
    <path
       id="path5073"
       style="fill:#000000;fill-opacity:0.88889005"
       sodipodi:type="star"
       sodipodi:sides="59"
       inkscape:transform-center-x="0.037980798"
       sodipodi:r1="47.296669"
       sodipodi:r2="107.49243"
       inkscape:transform-center-y="-0.038076634"
       inkscape:export-filename="C:\Users\Rene\Dropbox\osoverm.png"
       sodipodi:arg1="0.78539816"
       sodipodi:arg2="0.8386455"
       inkscape:randomized="0"
       inkscape:export-xdpi="43.349998"
       sodipodi:cy="168.53934"
       sodipodi:cx="438.18286"
       inkscape:export-ydpi="43.349998"
       inkscape:rounded="0"
       inkscape:flatsided="false"
       d="m 471.62666,201.98313 38.41176,46.50245 -42.15609,-43.13706 33.25125,50.32193 -37.33208,-47.3736 27.71398,53.57123 -32.08508,-51.07337 21.8627,56.21356 -26.47454,-54.19447 15.76371,58.21896 -20.56404,-56.70151 9.4861,59.56471 -14.42053,-58.56611 3.10102,60.23558 -8.11364,-59.76713 -3.3192,60.22394 -1.71482,-60.29096 -9.7018,59.52996 4.70342,-60.13168 -15.97448,58.16147 11.06838,-59.29108 -22.06617,56.134 17.30794,-57.77869 -27.90784,53.47049 23.35138,-55.61163 -33.43331,50.20115 29.13025,-52.81449 -38.57995,46.36301 34.57905,-49.41893 -43.28947,41.99956 39.63607,-45.46343 -47.50851,37.16023 44.24398,-40.99282 -51.18925,31.89987 48.3506,-36.05774 -54.29,26.27806 51.90939,-30.7141 -56.77563,20.35851 54.88002,-25.02247 -58.61796,14.2083 57.22885,-19.04732 -59.79613,7.8971 58.92924,-12.85637 -60.29679,1.49642 59.96194,-6.51974 -60.11424,-4.92121 60.31524,-0.10924 -59.25059,-11.28308 59.98516,6.3025 -57.71561,-17.51712 58.97542,12.64283 -55.52669,-23.55267 57.29746,18.8399 -52.70862,-29.32136 54.9703,24.82352 -49.29334,-34.75784 52.0203,30.52587 -45.31955,-39.80048 48.48089,35.88235 -40.83228,-44.39218 44.39219,40.83228 -35.88236,-48.480898 39.80049,45.319558 -30.52588,-52.020306 34.75784,49.293346 -24.82352,-54.970302 29.32137,52.708622 -18.83991,-57.297463 23.55267,55.526683 -12.64282,-58.975417 17.51711,57.715607 -6.30249,-59.985157 11.28308,59.250597 0.10924,-60.315249 4.92121,60.114249 6.51974,-59.96194 -1.49643,60.29678 12.85637,-58.929236 -7.8971,59.796126 19.04733,-57.228841 -14.2083,58.617961 25.02247,-54.880023 -20.35852,56.775623 30.71411,-51.909386 -26.27806,54.290006 36.05773,-48.350606 -31.89986,51.189256 40.99281,-44.243987 -37.16023,47.508507 45.46343,-39.636064 -41.99955,43.289474 49.41892,-34.57905 -46.363,38.57995 52.81448,-29.13025 -50.20115,33.4333 55.61164,-23.35138 -53.47049,27.90784 57.77868,-17.30793 -56.13399,22.06617 59.29108,-11.06839 -58.16148,15.97449 60.13168,-4.70343 -59.52996,9.7018 60.29097,1.71483 -60.22395,3.31919 59.76713,8.11365 -60.23558,-3.10103 58.56611,14.42054 -59.56471,-9.48611 56.70151,20.56404 -58.21895,-15.7637 54.19446,26.47454 -56.21355,-21.8627 51.07337,32.08507 -53.57123,-27.71397 47.37359,37.33207 -50.32192,-33.25124 43.13706,42.15608 z" />
    <path
       id="path5041"
       style="fill:#000000;fill-opacity:0.15;fill-rule:evenodd"
       d="m 439.7,-32.693824 c -312.97,0 -312.8,284.240634 -312.99,634.927134 l 58.457,0 c 0.1687,-344.85791 0.01,-625.423304 269.82,-634.668086 -5.0244,-0.155753 -10.09,-0.266091 -15.285,-0.266091 z"
       inkscape:export-ydpi="43.349998"
       inkscape:export-filename="C:\Users\Rene\Dropbox\osoverm.png"
       inkscape:connector-curvature="0"
       inkscape:export-xdpi="43.349998" />
    <path
       id="path5071"
       style="fill:#ffffff;fill-opacity:0.15;fill-rule:evenodd"
       d="m 439.21,-32.693824 c 312.97,0 312.8,284.240634 312.99,634.927134 l -58.457,0 c -0.1687,-344.85791 -0.01,-625.423304 -269.82,-634.668086 5.0244,-0.155753 10.09,-0.266091 15.285,-0.266091 z"
       inkscape:export-ydpi="43.349998"
       inkscape:export-filename="C:\Users\Rene\Dropbox\osoverm.png"
       inkscape:connector-curvature="0"
       inkscape:export-xdpi="43.349998" />
    <ellipse
       id="ellipse5027"
       style="fill:#000000;fill-rule:evenodd"
       inkscape:export-ydpi="43.349998"
       rx="68.406227"
       inkscape:export-xdpi="43.349998"
       ry="69.534767"
       cy="168.34564"
       cx="437.94275"
       inkscape:export-filename="C:\Users\Rene\Dropbox\osoverm.png" />
    <ellipse
       id="ellipse5039"
       style="fill:#ffffff;fill-rule:evenodd"
       inkscape:export-ydpi="43.349998"
       rx="18.357962"
       inkscape:export-xdpi="43.349998"
       ry="18.454529"
       cy="138.20035"
       cx="467.53192"
       inkscape:export-filename="C:\Users\Rene\Dropbox\osoverm.png" />
    <ellipse
       id="ellipse5069"
       style="fill:#ffffff;fill-rule:evenodd"
       rx="9.3832407"
       inkscape:export-ydpi="43.349998"
       inkscape:export-filename="C:\Users\Rene\Dropbox\osoverm.png"
       cy="203.21478"
       ry="9.4326591"
       inkscape:export-xdpi="43.349998"
       cx="403.14597" />
    <path
       id="path4306-1"
       style="fill:#ffa9a9;fill-rule:evenodd"
       d="m 556.18,341.04 c 0,7.7473 -54.055,6.2183 -120.74,6.2183 -66.68,0 -120.74,1.529 -120.74,-6.2183 0,-7.7473 0,-9.2763 120.74,-9.2763 120.74,0 120.74,1.529 120.74,9.2763 z"
       inkscape:export-ydpi="43.349998"
       sodipodi:nodetypes="sssss"
       inkscape:export-filename="C:\Users\Rene\Dropbox\osoverm.png"
       inkscape:connector-curvature="0"
       inkscape:export-xdpi="43.349998" />
    <path
       id="path4348-7"
       style="fill:none;stroke:#ff8080;stroke-width:3.31660008"
       d="m 334.59,338.68 199.42,0"
       inkscape:export-ydpi="43.349998"
       inkscape:export-filename="C:\Users\Rene\Dropbox\osoverm.png"
       inkscape:connector-curvature="0"
       inkscape:export-xdpi="43.349998" />
  </g>
  <metadata
     id="metadata20">
    <rdf:RDF>
      <cc:Work>
        <dc:format>image/svg+xml</dc:format>
        <dc:type
           rdf:resource="http://purl.org/dc/dcmitype/StillImage" />
        <cc:license
           rdf:resource="http://creativecommons.org/publicdomain/zero/1.0/" />
        <dc:publisher>
          <cc:Agent
             rdf:about="http://openclipart.org/">
            <dc:title>Openclipart</dc:title>
          </cc:Agent>
        </dc:publisher>
        <dc:title></dc:title>
      </cc:Work>
      <cc:License
         rdf:about="http://creativecommons.org/publicdomain/zero/1.0/">
        <cc:permits
           rdf:resource="http://creativecommons.org/ns#Reproduction" />
        <cc:permits
           rdf:resource="http://creativecommons.org/ns#Distribution" />
        <cc:permits
           rdf:resource="http://creativecommons.org/ns#DerivativeWorks" />
      </cc:License>
    </rdf:RDF>
  </metadata>
</svg>
